<svg xmlns="http://www.w3.org/2000/svg" width="595.281" height="595.275" viewBox="0 0 595.281 595.275"><path fill="#439934" d="M409.431 199.103c7.465 21.593 12.843 43.637 14.609 66.485 2.193 28.346 1.189 56.491-4.787 84.372-.162.768-.506 1.488-.762 2.23-1.875.006-3.785-.227-5.619.059-15.48 2.432-30.949 4.951-46.418 7.459-15.988 2.59-32 5.078-47.961 7.846-5.656.977-12.654-.189-14.938 7.631-.065.215-.717.252-1.094.373l.771-46.744c-.265-37.596-.525-75.191-.785-112.788l7.451-1.277c12.184-1.995 24.368-4.02 36.563-5.958 14.553-2.312 29.117-4.559 43.678-6.813 6.425-1.001 12.857-1.917 19.292-2.875z"/><path fill="#45A538" d="M287.079 511.821c-7.859-6.758-15.994-13.219-23.528-20.322-40.539-38.238-70.192-83.242-84.794-137.502-4.023-14.934-6.707-30.107-7.567-45.539-.604-10.799-1.479-21.695-.716-32.438 2.033-28.573 6.162-56.872 14.543-84.395l.46-.643c.814 1.083 1.986 2.041 2.4 3.266 8.181 24.09 16.3 48.198 24.378 72.32 25.383 75.807 50.734 151.631 76.159 227.417.498 1.479 1.786 2.693 2.711 4.027l-4.046 13.809z"/><path fill="#46A037" d="M409.431 199.103c-6.436.958-12.873 1.874-19.295 2.864-14.561 2.256-29.127 4.502-43.678 6.813-12.195 1.939-24.379 3.962-36.564 5.957l-7.448 1.279-.058-4.86c-.246-3.994-.67-7.983-.717-11.979-.32-25.478-.52-50.952-.836-76.429-.195-15.947-.488-31.891-.814-47.831-.198-9.906-.413-19.816-.858-29.709-.242-5.315-1.099-10.604-1.447-15.919-.195-3.057.075-6.135.135-9.203 3.801 7.36 7.516 14.778 11.421 22.086 6.173 11.552 16.005 20.063 24.854 29.35 34.985 36.703 59.825 79.377 75.305 127.581z"/><path fill="#409433" d="M302.458 375.552c.377-.121 1.031-.158 1.092-.371 2.285-7.822 9.283-6.656 14.939-7.633 15.961-2.762 31.973-5.254 47.961-7.846 15.469-2.506 30.936-5.027 46.418-7.459 1.832-.287 3.744-.053 5.617-.057-2.894 10.324-5.17 20.873-8.84 30.912-4.169 11.391-9.209 22.506-14.562 33.402-8 16.291-17.967 31.482-29.547 45.402-8.924 10.734-18.871 20.654-28.842 30.453-5.513 5.418-12.009 9.83-18.056 14.699l-1.565-1.068-5.646-4.826-5.842-12.805c-4.021-14.988-6.133-30.248-6.481-45.754l.106-2.607.795-11.283c.267-3.852.619-7.695.781-11.557.602-13.864 1.124-27.733 1.672-41.602z"/><path fill="#4FAA41" d="M302.458 375.552c-.549 13.869-1.07 27.736-1.66 41.609-.164 3.859-.518 7.707-.781 11.557l-3.558 1.344c-7.901-23.262-15.809-46.277-23.542-69.354-12.79-38.176-25.425-76.415-38.196-114.601a21099.919 21099.919 0 0 0-31.159-92.395c-.487-1.441-1.893-2.567-2.869-3.841l22.77-41.865c.782 1.356 1.813 2.628 2.307 4.088 10.534 31.173 21.048 62.351 31.476 93.562 13.562 40.601 27.039 81.232 40.591 121.837.539 1.623 1.432 3.121 2.283 4.939l3.115-3.629c-.261 15.584-.521 31.165-.777 46.749z"/><path fill="#4AA73C" d="M200.698 149.875c.977 1.273 2.376 2.399 2.869 3.842a20536.084 20536.084 0 0 1 31.159 92.394c12.771 38.188 25.406 76.425 38.195 114.603 7.729 23.07 15.636 46.092 23.542 69.354l3.559-1.344-.796 11.281-.721 2.6c-1.237 12.354-2.279 24.732-3.786 37.059-.758 6.176-2.367 12.238-3.59 18.354-.921-1.334-2.214-2.547-2.711-4.025-25.424-75.793-50.774-151.613-76.158-227.42a18165.5 18165.5 0 0 0-24.378-72.32c-.414-1.225-1.582-2.183-2.4-3.266a87005.37 87005.37 0 0 1 15.216-41.112z"/><path fill="#57AE47" d="M303.23 328.809l-3.115 3.627c-.853-1.818-1.744-3.32-2.284-4.938-13.547-40.605-27.03-81.238-40.591-121.839-10.428-31.21-20.942-62.388-31.477-93.561-.488-1.461-1.521-2.735-2.307-4.088l28.16-37.043c.888 1.187 2.152 2.242 2.613 3.577a14450.111 14450.111 0 0 1 23.268 68.727c7.194 21.411 14.282 42.855 21.56 64.239.488 1.433 2.187 2.446 3.32 3.655l.057 4.858c.271 37.59.536 75.19.796 112.786z"/><path fill="#60B24F" d="M302.388 211.156c-1.135-1.209-2.832-2.223-3.319-3.654-7.278-21.385-14.366-42.827-21.561-64.239a14606.408 14606.408 0 0 0-23.267-68.728c-.461-1.335-1.727-2.391-2.614-3.575 9.157-8.968 18.03-18.254 27.555-26.808 8.469-7.599 15.277-15.747 15.589-27.755.015-.497.274-.995.675-2.391l2.414 6.074c-.061 3.073-.335 6.147-.135 9.202.35 5.316 1.206 10.604 1.446 15.921.447 9.892.662 19.802.861 29.708.319 15.941.612 31.885.813 47.83.312 25.478.517 50.953.836 76.43.037 4.005.457 7.991.707 11.985z"/><path fill="#A9AA88" d="M291.12 498.012c1.223-6.115 2.832-12.186 3.59-18.355 1.511-12.318 2.548-24.703 3.785-37.057l.307-.047.308.051c.35 15.506 2.461 30.766 6.483 45.754-.817 1.078-1.977 2.041-2.41 3.26-3.381 9.533-6.565 19.143-9.966 28.676-.465 1.303-1.758 2.316-2.669 3.461l-3.474-11.934 4.046-13.809z"/><path fill="#B6B598" d="M290.553 523.759c.911-1.145 2.209-2.158 2.669-3.461 3.399-9.533 6.59-19.137 9.968-28.676.432-1.219 1.586-2.182 2.407-3.26l5.836 12.809c-1.151 1.637-2.741 3.109-3.385 4.934l-11.18 32.828c-.46 1.316-2.032 2.248-3.083 3.359l-3.232-18.533z"/><path fill="#C2C1A7" d="M293.785 542.288c1.056-1.107 2.623-2.043 3.083-3.357l11.18-32.83c.637-1.816 2.232-3.297 3.385-4.934l5.65 4.822c-2.729 2.697-4.246 5.813-3.334 9.752l-1.715 5.617c-.781.965-1.912 1.801-2.299 2.902-3.9 11.176-7.627 22.412-11.558 33.586-.498 1.42-1.878 2.531-2.855 3.777-.506-6.45-1.021-12.886-1.537-19.335z"/><path fill="#CECDB7" d="M295.329 561.624c.972-1.252 2.354-2.363 2.855-3.777 3.931-11.17 7.654-22.406 11.558-33.586.385-1.098 1.512-1.939 2.297-2.902l-2.367 25.789c-.633.729-1.549 1.367-1.852 2.219-2.675 7.506-5.193 15.066-7.877 22.572-.556 1.551-1.615 2.916-2.442 4.363-.735-.963-2.051-1.893-2.111-2.896-.239-3.913-.076-7.853-.061-11.782z"/><path fill="#DBDAC7" d="M297.496 576.302c.828-1.451 1.888-2.818 2.44-4.363 2.689-7.5 5.205-15.063 7.88-22.572.303-.852 1.223-1.484 1.852-2.219l.055 16.928-5.664 14.527-6.563-2.301z"/><path fill="#EBE9DC" d="M304.058 578.608l5.664-14.527 1.168 17.188-6.832-2.661z"/><path fill="#CECDB7" d="M313.75 515.747c-.91-3.939.6-7.061 3.334-9.754l1.568 1.07-4.902 8.684z"/><path fill="#4FAA41" d="M299.109 442.61l-.308-.053-.307.047.721-2.6-.106 2.606z"/></svg>